<?xml version="1.0" encoding="utf-8"?>
<!-- Generator: Adobe Illustrator 24.1.1, SVG Export Plug-In . SVG Version: 6.00 Build 0)  -->
<svg version="1.1" id="Layer_1" xmlns="http://www.w3.org/2000/svg" xmlns:xlink="http://www.w3.org/1999/xlink" x="0px" y="0px" width="15px"
	 viewBox="0 0 512 512" style="enable-background:new 0 0 512 512;" xml:space="preserve">
<g>
	<path d="M498.73,436.08c17.69,17.69,17.69,45.21,0,62.9c-8.85,8.84-19.65,12.77-31.45,12.77c-11.79,0-22.6-3.93-31.45-12.77
		L256,319.14L76.16,498.98c-8.85,8.84-19.65,12.77-31.45,12.77s-22.6-3.93-31.45-12.77c-17.69-17.69-17.69-45.21,0-62.9
		L193.1,256.25L13.27,76.4c-17.69-17.69-17.69-45.2,0-62.89c17.69-17.69,45.2-17.69,62.9,0L256,193.35L435.84,13.51
		c17.69-17.69,45.2-17.69,62.9,0c17.69,17.69,17.69,45.21,0,62.89L318.89,256.25L498.73,436.08z"/>
</g>
</svg>
