<svg id="Слой_1" data-name="Слой 1" xmlns="http://www.w3.org/2000/svg" viewBox="0 0 163.75 156.34">
  <title>raiting1</title>
  <path d="M153.89,72.59l20.5,41.54a6.2,6.2,0,0,0,4.67,3.39l45.84,6.66a6.2,6.2,0,0,1,3.43,10.57l-33.17,32.33a6.2,6.2,0,0,0-1.78,5.48l7.83,45.66a6.2,6.2,0,0,1-9,6.53l-41-21.56a6.2,6.2,0,0,0-5.77,0l-41,21.56a6.2,6.2,0,0,1-9-6.53l7.83-45.66a6.2,6.2,0,0,0-1.78-5.48L68.34,134.75a6.2,6.2,0,0,1,3.43-10.57l45.84-6.66a6.2,6.2,0,0,0,4.67-3.39l20.5-41.54A6.2,6.2,0,0,1,153.89,72.59Z" transform="translate(-66.46 -69.14)"/>
</svg>
