<svg 
  viewBox="0 0 24 24" 
  width="16px" 
  height="16px"
  xmlns="http://www.w3.org/2000/svg">
<path d="M11.5433 1.02453C11.7195 0.629286 12.2805 0.629285 12.4567 1.02453L15.1977 7.17374C15.2704 7.33676 15.4244 7.44868 15.6019 7.46741L22.2972 8.17406C22.7275 8.21948 22.9009 8.75303 22.5794 9.04273L17.5782 13.5498C17.4456 13.6693 17.3868 13.8504 17.4238 14.025L18.8207 20.6109C18.9105 21.0342 18.4566 21.364 18.0818 21.1478L12.2498 17.7841C12.0952 17.6949 11.9048 17.6949 11.7502 17.7841L5.91825 21.1478C5.5434 21.364 5.08953 21.0342 5.17932 20.6109L6.57621 14.025C6.61324 13.8504 6.5544 13.6693 6.42181 13.5498L1.42058 9.04273C1.09913 8.75303 1.27249 8.21948 1.70283 8.17406L8.3981 7.46741C8.57559 7.44868 8.72964 7.33676 8.8023 7.17374L11.5433 1.02453Z"></path>
</svg>