<svg xmlns="http://www.w3.org/2000/svg" width="16" height="16" viewBox="0 0 329.942 329.942"><path d="M329.208 126.666a14.999 14.999 0 0 0-12.109-10.209l-95.822-13.922-42.854-86.837a15.001 15.001 0 0 0-26.902 0l-42.851 86.836-95.825 13.922a15 15 0 0 0-8.313 25.586l69.339 67.582-16.375 95.446a15 15 0 0 0 21.764 15.813l85.711-45.059 85.71 45.059a15.191 15.191 0 0 0 7.021 1.723c8.275-.012 14.979-6.723 14.979-15 0-1.152-.13-2.275-.376-3.352l-16.233-94.629 69.339-67.583a14.997 14.997 0 0 0 3.797-15.376z"/></svg>