<!-- Generated by IcoMoon.io -->
<svg version="1.1" xmlns="http://www.w3.org/2000/svg" width="32" height="32" viewBox="0 0 32 32">
<title>trash-delete</title>
<path d="M21.49 5.655c0.593 0 0.988 0.395 0.988 0.988s-0.395 0.988-0.988 0.988h-13.835c-0.593 0-0.988-0.395-0.988-0.988s0.395-0.988 0.988-0.988h3.953l0.988-0.988h3.953l0.988 0.988h3.953zM12.796 24.431h-3.164c-1.087 0-1.976-0.889-1.976-1.976v-12.847h13.835v3.558c-0.233-0.019-0.468-0.029-0.706-0.029-0.927 0-1.819 0.149-2.654 0.424v-1.187h-1.482v1.839c-2.254 1.264-3.871 3.528-4.249 6.191v-8.030h-1.482v9.388h1.399c0.017 0.934 0.185 1.831 0.481 2.668zM20.784 28.667c-3.898 0-7.059-3.16-7.059-7.059s3.16-7.059 7.059-7.059c3.898 0 7.059 3.16 7.059 7.059s-3.16 7.059-7.059 7.059zM22.082 21.419l1.633-1.633c0.358-0.358 0.358-0.939 0-1.298s-0.939-0.358-1.298 0l-1.633 1.633-1.633-1.633c-0.358-0.358-0.939-0.358-1.298 0s-0.358 0.939 0 1.298l1.633 1.633-1.633 1.633c-0.358 0.358-0.358 0.939 0 1.298s0.939 0.358 1.298 0l1.633-1.633 1.633 1.633c0.358 0.358 0.939 0.358 1.298 0s0.358-0.939 0-1.298l-1.633-1.633z"></path>
</svg>
